<?xml version="1.0" encoding="UTF-8"?>
<svg version="1.1" xmlns="http://www.w3.org/2000/svg" width="512" height="512">
<path d="M0 0 C1.63211755 1.36654392 3.25730627 2.74141155 4.875 4.125 C6.01775391 5.04925781 6.01775391 5.04925781 7.18359375 5.9921875 C16.25284747 13.56823654 23.52743481 23.59763636 28.875 34.125 C28.875 34.785 28.875 35.445 28.875 36.125 C30.67348389 35.39796875 30.67348389 35.39796875 32.50830078 34.65625 C37.01281304 32.84279171 41.52950345 31.0615074 46.05029297 29.2890625 C47.99509563 28.5215721 49.93661722 27.74570741 51.87451172 26.9609375 C77.14549802 16.74306578 77.14549802 16.74306578 90.375 22.0625 C96.27445599 25.45444422 99.75036233 30.75108699 101.875 37.125 C101.96352978 38.55916464 101.9969878 39.99711231 101.99525452 41.43400574 C101.99731651 42.75279976 101.99731651 42.75279976 101.99942017 44.09823608 C101.99582489 45.05992706 101.99222961 46.02161804 101.98852539 47.01245117 C101.98867142 48.02726059 101.98881744 49.04207001 101.9889679 50.08763123 C101.98827026 53.44776535 101.98048478 56.80784429 101.97265625 60.16796875 C101.97079154 62.49538645 101.96936789 64.82280454 101.96836853 67.15022278 C101.96454751 73.28064047 101.95472074 79.41103453 101.94366455 85.54144287 C101.93344152 91.79520345 101.92886899 98.04896785 101.92382812 104.30273438 C101.91309813 116.57683331 101.89602666 128.85091469 101.875 141.125 C102.59977539 141.10405273 103.32455078 141.08310547 104.07128906 141.06152344 C107.42237928 140.97729304 110.77324571 140.92600496 114.125 140.875 C115.26453125 140.84148437 116.4040625 140.80796875 117.578125 140.7734375 C132.18552541 140.60744431 143.00953333 145.58857688 153.625 155.4375 C163.9008184 166.2949685 166.3526735 178.27084845 166.16796875 192.7890625 C166.16372391 194.06228363 166.15947906 195.33550476 166.15510559 196.64730835 C166.14124915 199.99789095 166.11439741 203.34783521 166.08099365 206.69824219 C166.05005403 210.13080391 166.03654975 213.56343215 166.02148438 216.99609375 C165.98855087 223.70590227 165.93845363 230.41541437 165.875 237.125 C166.69484375 237.07859375 167.5146875 237.0321875 168.359375 236.984375 C169.43703125 236.94828125 170.5146875 236.9121875 171.625 236.875 C172.69234375 236.82859375 173.7596875 236.7821875 174.859375 236.734375 C177.875 237.125 177.875 237.125 180.23327637 238.703125 C182.45173998 241.97580833 182.38260853 244.18360187 182.39257812 248.125 C182.40309204 249.16962402 182.40309204 249.16962402 182.41381836 250.23535156 C182.43139196 252.53230932 182.41977919 254.82803021 182.40625 257.125 C182.40894513 258.72396073 182.41282773 260.32291987 182.41784668 261.921875 C182.42374082 265.27099226 182.41518192 268.61968243 182.39648438 271.96875 C182.37369435 276.25978591 182.38681796 280.54982111 182.41077423 284.84082031 C182.4252348 288.14200366 182.42062515 291.44295011 182.41026306 294.74414062 C182.40759646 296.32617308 182.41086322 297.90822711 182.42018127 299.49023438 C182.43035179 301.70240163 182.4148419 303.912953 182.39257812 306.125 C182.38939575 307.383125 182.38621338 308.64125 182.38293457 309.9375 C181.875 313.125 181.875 313.125 180.30189514 315.53015137 C177.06466124 317.65751896 174.27659757 317.68668309 170.52709961 317.64257812 C169.79315979 317.6495874 169.05921997 317.65659668 168.30303955 317.66381836 C165.87742186 317.68141491 163.45297332 317.66976215 161.02734375 317.65625 C159.33305132 317.65894648 157.63876041 317.66283021 155.94447327 317.66784668 C152.38934632 317.67374564 148.83462122 317.66517375 145.27954102 317.64648438 C140.74931613 317.62381605 136.22004556 317.63673749 131.68985653 317.66077423 C128.1868032 317.67532608 124.68397061 317.67058152 121.18091011 317.66026306 C119.51255744 317.65761524 117.84418401 317.66079623 116.17585564 317.67018127 C102.34371722 317.73086315 91.24489947 316.02443144 80.875 306.125 C72.06649047 296.89786823 69.24925699 287.27455676 69.40429688 274.76025391 C69.87250472 262.93302493 74.4233695 254.28392893 82.94140625 246.15234375 C91.84163755 238.65322221 101.24569314 236.50205484 112.66796875 236.734375 C114.27603142 236.74286469 114.27603142 236.74286469 115.9165802 236.75152588 C119.29903188 236.77369486 122.68037525 236.82385438 126.0625 236.875 C128.37303144 236.89509017 130.6835797 236.91333649 132.99414062 236.9296875 C138.62146397 236.97349534 144.24815277 237.04020866 149.875 237.125 C149.7819988 230.49023847 149.67460708 223.85581707 149.55761719 217.22143555 C149.51953948 214.9685584 149.48465126 212.71562484 149.453125 210.46264648 C149.40701043 207.20796664 149.34909623 203.95366817 149.2890625 200.69921875 C149.27751129 199.70605148 149.26596008 198.71288422 149.25405884 197.68962097 C149.01069277 185.92941539 147.7628419 174.87053112 138.984375 166.2734375 C128.73411406 158.08129982 117.55766623 157.97525826 104.95880127 157.99128723 C103.65384476 157.98902167 102.34888826 157.98675612 101.00438762 157.98442191 C97.39292982 157.97831895 93.78149523 157.97843573 90.17003345 157.97961628 C86.27079221 157.97982067 82.37155835 157.97429788 78.47232056 157.96955872 C70.83678922 157.96125975 63.2012656 157.95850421 55.56573012 157.95794634 C49.35746592 157.9574708 43.14920426 157.95541417 36.94094086 157.95224571 C19.33000981 157.94344104 1.71908485 157.93882602 -15.89184842 157.93957619 C-17.31533462 157.93963612 -17.31533462 157.93963612 -18.76757812 157.93969727 C-19.71773093 157.93973815 -20.66788373 157.93977903 -21.64682904 157.93982115 C-37.04222933 157.94022752 -52.43760515 157.93065972 -67.83299837 157.9165589 C-83.6500584 157.90218647 -99.46710652 157.8952892 -115.28417325 157.89615268 C-124.16053631 157.89648435 -133.03687372 157.89375001 -141.9132309 157.88297462 C-149.47130212 157.8738582 -157.02933607 157.87170374 -164.58741042 157.87848405 C-168.44090496 157.88174354 -172.29432802 157.88182662 -176.1478157 157.8731308 C-180.33221982 157.86378565 -184.51645926 157.87005674 -188.7008667 157.87776184 C-190.51329774 157.8700465 -190.51329774 157.8700465 -192.36234355 157.86217529 C-203.81088838 157.90867432 -213.91706755 158.82327111 -223.125 166.125 C-231.52425441 174.70145387 -233.24339792 184.90310237 -233.25871277 196.57440186 C-233.26097833 197.29132682 -233.26324388 198.00825179 -233.26557809 198.74690175 C-233.2718713 201.13174029 -233.27109175 203.51652131 -233.27026367 205.90136719 C-233.27325811 207.61852084 -233.2766613 209.33567382 -233.28044128 211.05282593 C-233.28925713 215.70589777 -233.2916184 220.35895121 -233.29225707 225.0120306 C-233.29296902 227.92297239 -233.2951061 230.83390953 -233.29775429 233.74485016 C-233.30700018 243.91128332 -233.31109018 254.0777034 -233.31030273 264.24414062 C-233.30970235 273.70247961 -233.32024833 283.16076149 -233.3360464 292.61908603 C-233.34914763 300.75436633 -233.35448554 308.88962803 -233.35384732 317.02491879 C-233.35359307 321.87711423 -233.35640409 326.72925891 -233.36702538 331.58144379 C-233.37674974 336.14839931 -233.37675595 340.71525599 -233.36950874 345.28221512 C-233.36846823 346.95143657 -233.37079384 348.62066431 -233.3768692 350.28987503 C-233.48379619 369.39144229 -233.48379619 369.39144229 -225.125 386.125 C-216.99467526 394.08734282 -207.73251051 395.579593 -196.83984375 396.20898438 C-190.73343635 396.69106917 -190.73343635 396.69106917 -187.578125 398.94140625 C-186.03951597 401.25345584 -185.58208663 402.37854439 -185.625 405.125 C-185.6146875 405.785 -185.604375 406.445 -185.59375 407.125 C-186.43327833 410.28557725 -187.39246774 411.27078168 -190.125 413.125 C-193.63156679 413.72968796 -197.07471439 413.69322928 -200.625 413.625 C-201.61661133 413.61218994 -202.60822266 413.59937988 -203.62988281 413.58618164 C-218.25651265 413.18228339 -229.4589902 407.70488771 -239.53125 397.0625 C-249.90387388 384.45264352 -250.57116977 371.79462148 -250.52905273 356.18798828 C-250.53476214 354.27496951 -250.5417286 352.36195414 -250.54985046 350.44894409 C-250.56773456 345.27529234 -250.56662234 340.10181064 -250.56090808 334.9281373 C-250.55780914 330.59931251 -250.56391656 326.27052004 -250.56994683 321.94169986 C-250.58397506 311.72428927 -250.58244512 301.50696232 -250.57104492 291.28955078 C-250.55956715 280.77057121 -250.57363762 270.2518467 -250.6004414 259.73290074 C-250.62263759 250.68118824 -250.62922689 241.62955557 -250.62336498 232.5778178 C-250.62000338 227.18065268 -250.62235738 221.78365101 -250.63961601 216.38650894 C-250.65514545 211.30888948 -250.65106324 206.23164622 -250.63231087 201.15404129 C-250.62864146 199.29818287 -250.63168496 197.4422962 -250.64219666 195.58646393 C-250.73592598 177.66018694 -247.08481753 164.88836559 -234.19140625 151.79296875 C-228.4935664 147.19376721 -222.24034623 144.12742876 -215.5 141.375 C-204.0374057 136.57958845 -192.70910927 131.49668822 -181.37591553 126.40539551 C-179.00468548 125.34019947 -176.63328601 124.27538255 -174.26171875 123.2109375 C-173.50040649 122.86921509 -172.73909424 122.52749268 -171.95471191 122.17541504 C-164.36666936 118.77516457 -156.74972201 115.44203235 -149.125 112.125 C-149.125 108.52127711 -150.03617909 105.70515866 -151.0625 102.25 C-156.2936338 84.58789232 -156.26798432 64.57491483 -150.125 47.125 C-149.7125 45.88105469 -149.3 44.63710937 -148.875 43.35546875 C-140.30551006 18.98705799 -121.89877164 0.93462372 -99.02563477 -10.24560547 C-92.90293014 -13.10915189 -86.69832371 -15.27585595 -80.125 -16.875 C-78.75408203 -17.21144531 -78.75408203 -17.21144531 -77.35546875 -17.5546875 C-50.95529482 -22.94549225 -21.26453902 -16.69853371 0 0 Z M-109.125 16.125 C-109.79015625 16.64578125 -110.4553125 17.1665625 -111.140625 17.703125 C-125.27008128 29.16244781 -134.82137613 47.14614242 -137.125 65.125 C-138.93501834 86.3263746 -134.57163412 106.15841935 -121.4375 123.25 C-120.34217042 124.54916894 -119.2390771 125.8418714 -118.125 127.125 C-117.361875 128.135625 -116.59875 129.14625 -115.8125 130.1875 C-114.925625 131.156875 -114.03875 132.12625 -113.125 133.125 C-112.55094925 133.78361526 -111.9768985 134.44223053 -111.38545227 135.12080383 C-103.07730201 143.23447651 -93.82287953 142.3463282 -82.91796875 142.29296875 C-80.94556871 142.30600157 -78.97318052 142.32095329 -77.00080872 142.33772278 C-72.87759903 142.36296885 -68.75576636 142.35799514 -64.63256836 142.33276367 C-59.37921676 142.30402131 -54.13086425 142.36129936 -48.87821484 142.44294262 C-44.80696847 142.49467861 -40.73690014 142.49464341 -36.66539955 142.48015785 C-34.73067794 142.4803628 -32.79587406 142.49743544 -30.86147118 142.53255272 C-19.94209462 142.70389891 -12.31248095 142.16910303 -4.11986828 134.46892834 C11.49860849 118.5798423 21.13171635 98.48428778 21.375 76.125 C21.17573379 57.81119023 14.8938143 40.12038323 2.875 26.125 C2.37871094 25.48691406 1.88242187 24.84882812 1.37109375 24.19140625 C-11.80794226 7.90021234 -32.07105029 -0.4384442 -52.4375 -2.6875 C-73.14666286 -3.88658301 -93.33804665 2.7120246 -109.125 16.125 Z M64.66015625 40.40625 C63.37654457 40.90566101 63.37654457 40.90566101 62.06700134 41.41516113 C59.35270736 42.47411033 56.64517215 43.54924722 53.9375 44.625 C52.09091804 45.34873708 50.24391666 46.07140499 48.39648438 46.79296875 C43.88437402 48.55797362 39.37825062 50.33751788 34.875 52.125 C35.01502441 52.77259277 35.15504883 53.42018555 35.29931641 54.08740234 C40.20180288 78.48713385 37.281369 104.6699067 23.5625 125.8046875 C21.41726586 128.97365386 19.14536941 132.04468365 16.875 135.125 C15.555 137.105 14.235 139.085 12.875 141.125 C36.965 141.125 61.055 141.125 85.875 141.125 C85.96226506 124.03126485 85.96226506 124.03126485 86.02148438 106.9375 C86.03941426 99.96509956 86.06062038 92.99281737 86.10131836 86.02050781 C86.13392626 80.39896473 86.15185616 74.77754848 86.15963173 69.15591812 C86.16517263 67.01172006 86.17599263 64.8675289 86.19219017 62.72338486 C86.21398315 59.71892066 86.2169661 56.7149798 86.21557617 53.71044922 C86.226362 52.82499924 86.23714783 51.93954926 86.2482605 51.02726746 C86.22305203 45.98788261 85.70935877 42.47876018 82.875 38.125 C76.80800854 35.09150427 70.43932947 38.08519104 64.66015625 40.40625 Z M-146.78515625 129.96875 C-147.44962265 130.25729858 -148.11408905 130.54584717 -148.7986908 130.84313965 C-150.92903883 131.76872371 -153.05827593 132.69683368 -155.1875 133.625 C-156.62818296 134.25146827 -158.06893724 134.87777253 -159.50976562 135.50390625 C-163.04900875 137.04236624 -166.58725729 138.58309306 -170.125 140.125 C-170.125 140.455 -170.125 140.785 -170.125 141.125 C-156.595 141.125 -143.065 141.125 -129.125 141.125 C-131.23676986 137.60538356 -133.25135428 134.51820929 -135.75 131.3125 C-136.36101562 130.52230469 -136.97203125 129.73210937 -137.6015625 128.91796875 C-138.10429687 128.32628906 -138.60703125 127.73460937 -139.125 127.125 C-141.65504637 127.125 -144.45901896 128.9527662 -146.78515625 129.96875 Z M92.875 260.125 C87.18506192 267.35390397 86.04459641 274.03669399 86.875 283.125 C88.68971093 289.16088636 92.35776978 293.96951316 97.76171875 297.28125 C103.61953507 300.4054187 109.06025646 301.25354014 115.69677734 301.23852539 C116.81748627 301.23844986 117.93819519 301.23837433 119.09286499 301.23829651 C120.28682892 301.23313522 121.48079285 301.22797394 122.7109375 301.22265625 C124.56267075 301.22053383 124.56267075 301.22053383 126.45181274 301.21836853 C130.38456675 301.21278272 134.31726328 301.20023275 138.25 301.1875 C140.92057208 301.18191912 143.59114363 301.17792058 146.26171875 301.17382812 C152.79951898 301.16366995 159.33719535 301.14409158 165.875 301.125 C165.875 285.285 165.875 269.445 165.875 253.125 C158.06438563 253.07898001 150.25424564 253.03918574 142.44360352 253.01513672 C139.78890161 253.00624054 137.13441773 252.99147944 134.47973633 252.97412109 C130.65443201 252.9497424 126.82927434 252.93848688 123.00390625 252.9296875 C121.82542618 252.91936493 120.64694611 252.90904236 119.43275452 252.89840698 C109.75234765 252.89710188 100.47416704 253.50263221 92.875 260.125 Z " fill="#000000" transform="translate(290.125,58.875)"/>
<path d="M0 0 C0.99 -0.01546875 0.99 -0.01546875 2 -0.03125 C5.02309388 0.77175931 6.09409775 2.01862062 8 4.5 C8.3988106 7.39100059 8.56151208 9.8925014 8.53125 12.78125 C8.5350769 13.59057983 8.53890381 14.39990967 8.54284668 15.23376465 C8.54556652 16.94849896 8.53820017 18.6632747 8.52148438 20.37792969 C8.50029603 22.96387134 8.52116484 25.54696355 8.546875 28.1328125 C8.57553346 44.33599124 4.89969622 56.16515643 -6.3125 68.25 C-16.47571119 77.86875345 -28.05444613 80.96596745 -41.72958374 80.88768005 C-43.44100805 80.89575836 -43.44100805 80.89575836 -45.18700659 80.90399987 C-48.98855211 80.91824314 -52.78974766 80.91118461 -56.59130859 80.90405273 C-59.32518409 80.90811654 -62.05904201 80.91662259 -64.79290771 80.92485046 C-71.43308573 80.94199712 -78.07316894 80.94288769 -84.71336333 80.93763756 C-90.10879072 80.93358952 -95.50419018 80.9350469 -100.89961624 80.94038582 C-101.66865688 80.94113424 -102.43769751 80.94188266 -103.23004241 80.94265376 C-104.79245015 80.94418527 -106.35485788 80.94572362 -107.91726561 80.94726873 C-122.54757284 80.96097696 -137.17782649 80.95556625 -151.80813248 80.94408352 C-165.19702382 80.93413673 -178.58577725 80.94711968 -191.97464733 80.97101771 C-205.72950855 80.99538397 -219.48430546 81.00502369 -233.23918784 80.99836498 C-240.95892136 80.99486933 -248.67854863 80.99712848 -256.39826584 81.01461601 C-262.96434834 81.02930641 -269.5302496 81.03001428 -276.09632842 81.0125451 C-279.44687273 81.00400925 -282.79682558 81.00410021 -286.14739609 81.01719666 C-289.77601351 81.0303011 -293.40373993 81.01895215 -297.03231812 81.00120544 C-298.62713471 81.01561295 -298.62713471 81.01561295 -300.25416982 81.03031152 C-307.3622168 80.95840698 -307.3622168 80.95840698 -310.65227699 78.59367466 C-312.1038451 76.33867763 -312.54158481 75.16142813 -312.5 72.5 C-312.51546875 71.51 -312.51546875 71.51 -312.53125 70.5 C-311.70092839 67.37408334 -310.64529365 66.41904745 -308 64.5 C-304.48046869 63.88470778 -300.98362879 63.96269802 -297.41868591 63.99447632 C-296.32863741 63.9883862 -295.2385889 63.98229608 -294.11550862 63.97602141 C-290.44975661 63.96036085 -286.78465232 63.97323483 -283.11889648 63.98583984 C-280.49578947 63.98038174 -277.87268563 63.97314192 -275.24958801 63.96424866 C-269.5932807 63.94773729 -263.93711478 63.94561538 -258.28079033 63.95301437 C-250.09072598 63.96353128 -241.90083452 63.9501384 -233.71079315 63.93054982 C-220.40737391 63.89919664 -207.10399117 63.88420355 -193.80053711 63.88085938 C-192.6060311 63.88055339 -192.6060311 63.88055339 -191.38739366 63.88024123 C-190.59009886 63.88003786 -189.79280407 63.87983449 -188.97134882 63.87962496 C-177.68491385 63.87670911 -166.39849018 63.86991444 -155.11206055 63.85839844 C-154.31881606 63.85759314 -153.52557158 63.85678785 -152.70828938 63.85595815 C-139.46322147 63.84218383 -126.21817358 63.82037765 -112.97312409 63.7945286 C-104.80876193 63.77911331 -96.64446546 63.77186695 -88.48008902 63.77532353 C-82.87903178 63.77737005 -77.27800711 63.77267455 -71.67695832 63.76278017 C-68.44928502 63.7573689 -65.22171305 63.75635189 -61.99403763 63.76195335 C-58.48601367 63.76761901 -54.97821073 63.76102014 -51.47019958 63.7515564 C-50.46219518 63.75621961 -49.45419077 63.76088282 -48.41564077 63.76568735 C-37.46773572 63.70826223 -27.7715645 62.45569676 -19 55.5 C-10.82659363 47.1541589 -8.93894792 37.21332981 -8.82421875 25.83203125 C-8.80037109 24.60935547 -8.77652344 23.38667969 -8.75195312 22.12695312 C-8.70878929 19.57243915 -8.67764608 17.01769527 -8.65820312 14.46289062 C-8.61663086 12.63467773 -8.61663086 12.63467773 -8.57421875 10.76953125 C-8.55963623 9.66198486 -8.54505371 8.55443848 -8.5300293 7.41333008 C-7.66474737 2.65726871 -4.90206469 -0.07659476 0 0 Z " fill="#000000" transform="translate(448,391.5)"/>
<path d="M0 0 C0.66 -0.0103125 1.32 -0.020625 2 -0.03125 C4.98174986 0.76077731 6.16411059 2.04673186 8 4.5 C8.390625 7.515625 8.390625 7.515625 8.25 10.75 C8.21390625 11.82765625 8.1778125 12.9053125 8.140625 14.015625 C8.09421875 14.83546875 8.0478125 15.6553125 8 16.5 C8.81984375 16.45359375 9.6396875 16.4071875 10.484375 16.359375 C11.56203125 16.32328125 12.6396875 16.2871875 13.75 16.25 C15.35101563 16.18039063 15.35101563 16.18039063 16.984375 16.109375 C20 16.5 20 16.5 22.359375 18.265625 C24.09023982 20.62289805 24.54492653 21.62470206 24.5 24.5 C24.5103125 25.16 24.520625 25.82 24.53125 26.5 C23.69936936 29.63178594 22.68491008 30.64526574 20 32.5 C16.69289939 33.08579882 13.41509529 33.10574604 10.0625 33.125 C2.25483637 33.00945195 2.25483637 33.00945195 -5 35.5 C-6.39935013 38.29870027 -6.25265405 40.40498792 -6 43.5 C-3.59634154 46.9337978 -0.65359258 47.2010053 3.3125 47.9375 C11.76352785 49.76449604 17.09990698 53.40076885 22 60.5 C25.22307561 66.94615122 25.12671819 75.035914 23.3828125 81.9453125 C21.00405976 87.31329436 16.73571343 91.14513114 12 94.5 C11.01 94.83 10.02 95.16 9 95.5 C8.96132812 96.83804688 8.96132812 96.83804688 8.921875 98.203125 C8.83679688 99.95882812 8.83679688 99.95882812 8.75 101.75 C8.70359375 102.91015625 8.6571875 104.0703125 8.609375 105.265625 C7.90070664 109.02701858 7.06330063 110.26226975 4 112.5 C2 113.03125 2 113.03125 0 113 C-0.66 113.0103125 -1.32 113.020625 -2 113.03125 C-4.98174986 112.23922269 -6.16411059 110.95326814 -8 108.5 C-8.390625 105.484375 -8.390625 105.484375 -8.25 102.25 C-8.21390625 101.17234375 -8.1778125 100.0946875 -8.140625 98.984375 C-8.09421875 98.16453125 -8.0478125 97.3446875 -8 96.5 C-8.81984375 96.54640625 -9.6396875 96.5928125 -10.484375 96.640625 C-11.56203125 96.67671875 -12.6396875 96.7128125 -13.75 96.75 C-14.81734375 96.79640625 -15.8846875 96.8428125 -16.984375 96.890625 C-20 96.5 -20 96.5 -22.359375 94.734375 C-24.09023982 92.37710195 -24.54492653 91.37529794 -24.5 88.5 C-24.51546875 87.51 -24.51546875 87.51 -24.53125 86.5 C-23.69936936 83.36821406 -22.68491008 82.35473426 -20 80.5 C-16.69289939 79.91420118 -13.41509529 79.89425396 -10.0625 79.875 C-2.25483637 79.99054805 -2.25483637 79.99054805 5 77.5 C6.39935013 74.70129973 6.25265405 72.59501208 6 69.5 C4.26397965 67.02511977 3.10077335 66.52605494 0.14453125 65.76171875 C-0.95503906 65.57222656 -2.05460937 65.38273437 -3.1875 65.1875 C-11.1759382 63.47251827 -16.06842372 60.33678634 -20.9375 53.8125 C-24.95493125 47.36026193 -24.56857176 40.91615333 -24 33.5 C-22.34587561 26.88350245 -17.54647373 22.23737 -12 18.5 C-9.75 17.80859375 -9.75 17.80859375 -8 17.5 C-8.04640625 16.60796875 -8.0928125 15.7159375 -8.140625 14.796875 C-8.17671875 13.62640625 -8.2128125 12.4559375 -8.25 11.25 C-8.29640625 10.08984375 -8.3428125 8.9296875 -8.390625 7.734375 C-8 4.5 -8 4.5 -6.234375 2.109375 C-3.87988376 0.41348271 -2.85547686 -0.04461683 0 0 Z " fill="#000000" transform="translate(232,79.5)"/>
<path d="M0 0 C5.82485779 3.51996782 10.54466582 8.98962934 12.5625 15.5 C13.36764105 23.33608208 13.68710392 31.11922577 8.5625 37.5 C3.75801361 42.54521222 -0.59927055 46.10562995 -7.70703125 46.8359375 C-16.22326573 46.92983204 -22.11345494 46.6177288 -28.40234375 40.62890625 C-34.7841668 33.72505269 -35.91792252 28.29832071 -35.7421875 18.9453125 C-35.04689797 11.08319245 -31.38995981 6.95041296 -25.53515625 1.9453125 C-18.47077988 -2.92213491 -7.84396301 -3.47595223 0 0 Z M-16.8125 17.125 C-18.92456506 20.21186432 -19.04945145 21.8282913 -18.4375 25.5 C-16.9375 28 -16.9375 28 -14.4375 29.5 C-10.7657913 30.11195145 -9.14936432 29.98706506 -6.0625 27.875 C-3.95043494 24.78813568 -3.82554855 23.1717087 -4.4375 19.5 C-5.9375 17 -5.9375 17 -8.4375 15.5 C-12.1092087 14.88804855 -13.72563568 15.01293494 -16.8125 17.125 Z " fill="#000000" transform="translate(403.4375,233.5)"/>
<path d="M0 0 C5.82485779 3.51996782 10.54466582 8.98962934 12.5625 15.5 C13.36764105 23.33608208 13.68710392 31.11922577 8.5625 37.5 C3.75801361 42.54521222 -0.59927055 46.10562995 -7.70703125 46.8359375 C-16.22326573 46.92983204 -22.11345494 46.6177288 -28.40234375 40.62890625 C-34.7841668 33.72505269 -35.91792252 28.29832071 -35.7421875 18.9453125 C-35.04689797 11.08319245 -31.38995981 6.95041296 -25.53515625 1.9453125 C-18.47077988 -2.92213491 -7.84396301 -3.47595223 0 0 Z M-16.8125 17.125 C-18.92456506 20.21186432 -19.04945145 21.8282913 -18.4375 25.5 C-16.9375 28 -16.9375 28 -14.4375 29.5 C-10.7657913 30.11195145 -9.14936432 29.98706506 -6.0625 27.875 C-3.95043494 24.78813568 -3.82554855 23.1717087 -4.4375 19.5 C-5.9375 17 -5.9375 17 -8.4375 15.5 C-12.1092087 14.88804855 -13.72563568 15.01293494 -16.8125 17.125 Z " fill="#000000" transform="translate(339.4375,233.5)"/>
<path d="M0 0 C0.85247314 -0.00700928 1.70494629 -0.01401855 2.58325195 -0.02124023 C5.3995832 -0.03883756 8.21490864 -0.02719147 11.03125 -0.01367188 C12.98893425 -0.01636629 14.9466172 -0.02024829 16.90429688 -0.02526855 C21.00664007 -0.03116595 25.10863482 -0.02259281 29.2109375 -0.00390625 C34.47045628 0.01888337 39.72915864 0.00576159 44.98864746 -0.01819611 C49.0309871 -0.03264751 53.07313305 -0.0280511 57.11547852 -0.01768494 C59.05476986 -0.01501583 60.99407877 -0.01829385 62.93334961 -0.02760315 C65.6435405 -0.03775789 68.35240775 -0.02228315 71.0625 0 C71.86469971 -0.00809692 72.66689941 -0.01619385 73.4934082 -0.02453613 C77.09387563 0.03033112 79.1245547 0.20680866 82.02734375 2.42492676 C83.65685192 4.69235034 84.0743805 5.75722605 84.03125 8.51757812 C84.04671875 9.50757813 84.04671875 9.50757813 84.0625 10.51757812 C83.25733917 13.54877184 82.02578717 14.61141893 79.53125 16.51757812 C76.5833973 16.912136 74.00947717 17.06490127 71.0625 17.03515625 C69.78379028 17.04567017 69.78379028 17.04567017 68.47924805 17.05639648 C65.6629168 17.07399381 62.84759136 17.06234772 60.03125 17.04882812 C58.07356575 17.05152254 56.1158828 17.05540454 54.15820312 17.0604248 C50.05585993 17.0663222 45.95386518 17.05774906 41.8515625 17.0390625 C36.59204372 17.01627288 31.33334136 17.02939466 26.07385254 17.05335236 C22.0315129 17.06780376 17.98936695 17.06320735 13.94702148 17.05284119 C12.00773014 17.05017208 10.06842123 17.0534501 8.12915039 17.0627594 C5.4189595 17.07291414 2.71009225 17.0574394 0 17.03515625 C-0.80219971 17.04325317 -1.60439941 17.0513501 -2.4309082 17.05969238 C-6.03137563 17.00482513 -8.0620547 16.82834759 -10.96484375 14.61022949 C-12.59435192 12.34280591 -13.0118805 11.2779302 -12.96875 8.51757812 C-12.98421875 7.52757812 -12.98421875 7.52757812 -13 6.51757812 C-11.24883612 -0.07503884 -5.81974348 -0.05874101 0 0 Z " fill="#000000" transform="translate(164.46875,391.482421875)"/>
<path d="M0 0 C0.85247314 -0.00700928 1.70494629 -0.01401855 2.58325195 -0.02124023 C5.3995832 -0.03883756 8.21490864 -0.02719147 11.03125 -0.01367188 C12.98893425 -0.01636629 14.9466172 -0.02024829 16.90429688 -0.02526855 C21.00664007 -0.03116595 25.10863482 -0.02259281 29.2109375 -0.00390625 C34.47045628 0.01888337 39.72915864 0.00576159 44.98864746 -0.01819611 C49.0309871 -0.03264751 53.07313305 -0.0280511 57.11547852 -0.01768494 C59.05476986 -0.01501583 60.99407877 -0.01829385 62.93334961 -0.02760315 C65.6435405 -0.03775789 68.35240775 -0.02228315 71.0625 0 C71.86469971 -0.00809692 72.66689941 -0.01619385 73.4934082 -0.02453613 C77.09387563 0.03033112 79.1245547 0.20680866 82.02734375 2.42492676 C83.65685192 4.69235034 84.0743805 5.75722605 84.03125 8.51757812 C84.04671875 9.50757813 84.04671875 9.50757813 84.0625 10.51757812 C83.25733917 13.54877184 82.02578717 14.61141893 79.53125 16.51757812 C76.5833973 16.912136 74.00947717 17.06490127 71.0625 17.03515625 C69.78379028 17.04567017 69.78379028 17.04567017 68.47924805 17.05639648 C65.6629168 17.07399381 62.84759136 17.06234772 60.03125 17.04882812 C58.07356575 17.05152254 56.1158828 17.05540454 54.15820312 17.0604248 C50.05585993 17.0663222 45.95386518 17.05774906 41.8515625 17.0390625 C36.59204372 17.01627288 31.33334136 17.02939466 26.07385254 17.05335236 C22.0315129 17.06780376 17.98936695 17.06320735 13.94702148 17.05284119 C12.00773014 17.05017208 10.06842123 17.0534501 8.12915039 17.0627594 C5.4189595 17.07291414 2.71009225 17.0574394 0 17.03515625 C-0.80219971 17.04325317 -1.60439941 17.0513501 -2.4309082 17.05969238 C-6.03137563 17.00482513 -8.0620547 16.82834759 -10.96484375 14.61022949 C-12.59435192 12.34280591 -13.0118805 11.2779302 -12.96875 8.51757812 C-12.98421875 7.52757812 -12.98421875 7.52757812 -13 6.51757812 C-11.24883612 -0.07503884 -5.81974348 -0.05874101 0 0 Z " fill="#000000" transform="translate(164.46875,351.482421875)"/>
<path d="M0 0 C0.85247314 -0.00700928 1.70494629 -0.01401855 2.58325195 -0.02124023 C5.3995832 -0.03883756 8.21490864 -0.02719147 11.03125 -0.01367188 C12.98893425 -0.01636629 14.9466172 -0.02024829 16.90429688 -0.02526855 C21.00664007 -0.03116595 25.10863482 -0.02259281 29.2109375 -0.00390625 C34.47045628 0.01888337 39.72915864 0.00576159 44.98864746 -0.01819611 C49.0309871 -0.03264751 53.07313305 -0.0280511 57.11547852 -0.01768494 C59.05476986 -0.01501583 60.99407877 -0.01829385 62.93334961 -0.02760315 C65.6435405 -0.03775789 68.35240775 -0.02228315 71.0625 0 C71.86469971 -0.00809692 72.66689941 -0.01619385 73.4934082 -0.02453613 C77.09387563 0.03033112 79.1245547 0.20680866 82.02734375 2.42492676 C83.65685192 4.69235034 84.0743805 5.75722605 84.03125 8.51757812 C84.04671875 9.50757813 84.04671875 9.50757813 84.0625 10.51757812 C83.25733917 13.54877184 82.02578717 14.61141893 79.53125 16.51757812 C76.5833973 16.912136 74.00947717 17.06490127 71.0625 17.03515625 C69.78379028 17.04567017 69.78379028 17.04567017 68.47924805 17.05639648 C65.6629168 17.07399381 62.84759136 17.06234772 60.03125 17.04882812 C58.07356575 17.05152254 56.1158828 17.05540454 54.15820312 17.0604248 C50.05585993 17.0663222 45.95386518 17.05774906 41.8515625 17.0390625 C36.59204372 17.01627288 31.33334136 17.02939466 26.07385254 17.05335236 C22.0315129 17.06780376 17.98936695 17.06320735 13.94702148 17.05284119 C12.00773014 17.05017208 10.06842123 17.0534501 8.12915039 17.0627594 C5.4189595 17.07291414 2.71009225 17.0574394 0 17.03515625 C-0.80219971 17.04325317 -1.60439941 17.0513501 -2.4309082 17.05969238 C-6.03137563 17.00482513 -8.0620547 16.82834759 -10.96484375 14.61022949 C-12.59435192 12.34280591 -13.0118805 11.2779302 -12.96875 8.51757812 C-12.98421875 7.52757812 -12.98421875 7.52757812 -13 6.51757812 C-11.24883612 -0.07503884 -5.81974348 -0.05874101 0 0 Z " fill="#000000" transform="translate(84.46875,303.482421875)"/>
<path d="M0 0 C0.85247314 -0.00700928 1.70494629 -0.01401855 2.58325195 -0.02124023 C5.3995832 -0.03883756 8.21490864 -0.02719147 11.03125 -0.01367188 C12.98893425 -0.01636629 14.9466172 -0.02024829 16.90429688 -0.02526855 C21.00664007 -0.03116595 25.10863482 -0.02259281 29.2109375 -0.00390625 C34.47045628 0.01888337 39.72915864 0.00576159 44.98864746 -0.01819611 C49.0309871 -0.03264751 53.07313305 -0.0280511 57.11547852 -0.01768494 C59.05476986 -0.01501583 60.99407877 -0.01829385 62.93334961 -0.02760315 C65.6435405 -0.03775789 68.35240775 -0.02228315 71.0625 0 C71.86469971 -0.00809692 72.66689941 -0.01619385 73.4934082 -0.02453613 C77.09387563 0.03033112 79.1245547 0.20680866 82.02734375 2.42492676 C83.65685192 4.69235034 84.0743805 5.75722605 84.03125 8.51757812 C84.04671875 9.50757813 84.04671875 9.50757813 84.0625 10.51757812 C83.25733917 13.54877184 82.02578717 14.61141893 79.53125 16.51757812 C76.5833973 16.912136 74.00947717 17.06490127 71.0625 17.03515625 C69.78379028 17.04567017 69.78379028 17.04567017 68.47924805 17.05639648 C65.6629168 17.07399381 62.84759136 17.06234772 60.03125 17.04882812 C58.07356575 17.05152254 56.1158828 17.05540454 54.15820312 17.0604248 C50.05585993 17.0663222 45.95386518 17.05774906 41.8515625 17.0390625 C36.59204372 17.01627288 31.33334136 17.02939466 26.07385254 17.05335236 C22.0315129 17.06780376 17.98936695 17.06320735 13.94702148 17.05284119 C12.00773014 17.05017208 10.06842123 17.0534501 8.12915039 17.0627594 C5.4189595 17.07291414 2.71009225 17.0574394 0 17.03515625 C-0.80219971 17.04325317 -1.60439941 17.0513501 -2.4309082 17.05969238 C-6.03137563 17.00482513 -8.0620547 16.82834759 -10.96484375 14.61022949 C-12.59435192 12.34280591 -13.0118805 11.2779302 -12.96875 8.51757812 C-12.98421875 7.52757812 -12.98421875 7.52757812 -13 6.51757812 C-11.24883612 -0.07503884 -5.81974348 -0.05874101 0 0 Z " fill="#000000" transform="translate(84.46875,263.482421875)"/>
<path d="M0 0 C2.5 1.5 2.5 1.5 4 4 C4.791013 8.02098277 4.62153384 10.96411027 2.5 14.5 C-1.03588973 16.62153384 -3.97901723 16.791013 -8 16 C-10.5 14.5 -10.5 14.5 -12 12 C-12.791013 7.97901723 -12.62153384 5.03588973 -10.5 1.5 C-6.96411027 -0.62153384 -4.02098277 -0.791013 0 0 Z " fill="#000000" transform="translate(124,456)"/>
<path d="M0 0 C2.5 1.5 2.5 1.5 4 4 C4.791013 8.02098277 4.62153384 10.96411027 2.5 14.5 C-1.03588973 16.62153384 -3.97901723 16.791013 -8 16 C-10.5 14.5 -10.5 14.5 -12 12 C-12.791013 7.97901723 -12.62153384 5.03588973 -10.5 1.5 C-6.96411027 -0.62153384 -4.02098277 -0.791013 0 0 Z " fill="#000000" transform="translate(420,328)"/>
</svg>
