<?xml version="1.0" standalone="no"?>
<!DOCTYPE svg PUBLIC "-//W3C//DTD SVG 20010904//EN"
 "http://www.w3.org/TR/2001/REC-SVG-20010904/DTD/svg10.dtd">
<svg version="1.0" xmlns="http://www.w3.org/2000/svg"
 width="512.000000pt" height="512.000000pt" viewBox="0 0 512.000000 512.000000"
 preserveAspectRatio="xMidYMid meet">

<g transform="translate(0.000000,512.000000) scale(0.100000,-0.100000)"
fill="#000000" stroke="none">
<path d="M1310 5100 c-96 -45 -139 -112 -147 -231 l-6 -78 -241 -3 c-225 -3
-244 -4 -281 -25 -52 -28 -89 -68 -114 -123 -20 -44 -21 -59 -21 -1246 0
-1200 0 -1201 21 -1228 28 -36 80 -36 108 0 21 26 21 33 21 750 l0 724 1915 0
1915 0 0 -954 c0 -672 -3 -962 -11 -985 -20 -56 -42 -61 -297 -61 l-229 0 -17
76 c-35 163 -129 368 -229 504 -146 198 -315 338 -541 446 -345 165 -743 178
-1109 34 -423 -165 -750 -547 -850 -995 l-14 -60 -242 0 -243 0 -24 28 c-22
26 -24 36 -24 146 0 141 -11 165 -75 165 -27 0 -43 -6 -56 -23 -18 -21 -19
-45 -19 -308 0 -190 4 -299 12 -325 15 -49 76 -120 125 -144 33 -17 70 -20
292 -24 l253 -5 23 -90 c134 -527 545 -922 1078 -1037 137 -29 409 -32 537 -5
479 101 863 416 1039 853 22 54 50 140 62 191 l23 92 255 3 c252 3 257 3 301
28 58 33 105 96 119 160 15 72 15 3178 0 3250 -14 66 -62 127 -124 159 -48 25
-54 26 -291 29 l-242 3 -3 83 c-4 71 -8 89 -34 132 -78 126 -249 150 -362 51
-52 -46 -76 -100 -81 -189 l-5 -78 -917 0 -918 0 -3 83 c-4 72 -8 90 -34 133
-62 99 -194 141 -295 94z m133 -142 c44 -23 46 -34 47 -246 0 -202 0 -203 -25
-227 -32 -33 -84 -33 -122 -1 l-28 24 -3 188 c-3 197 2 232 42 259 25 18 60
19 89 3z m2336 -14 l31 -26 0 -204 c0 -204 0 -205 -25 -229 -32 -33 -84 -33
-122 -1 l-28 24 0 207 0 207 28 24 c37 31 78 31 116 -2z m-2616 -382 c6 -89
27 -139 79 -189 117 -112 321 -67 385 84 7 18 13 66 13 108 l0 75 919 0 918 0
5 -77 c5 -88 27 -139 80 -190 69 -67 172 -82 263 -39 93 43 134 116 135 234
l0 72 220 0 c246 0 269 -5 289 -61 7 -20 11 -114 11 -240 l0 -209 -1915 0
-1915 0 0 223 c0 239 4 257 54 277 11 5 118 9 237 9 l216 1 6 -78z m3312 -677
l0 -90 -1912 -3 -1913 -2 0 95 0 95 1913 -2 1912 -3 0 -90z m-1725 -1249 c407
-62 759 -323 941 -699 136 -280 157 -632 57 -932 -63 -187 -157 -336 -307
-486 -187 -188 -382 -292 -656 -350 -91 -20 -362 -17 -463 4 -358 76 -657 291
-840 602 -226 386 -223 881 8 1266 201 333 541 553 935 602 74 10 238 6 325
-7z m-1810 -1146 l225 0 0 -90 0 -90 -228 0 -229 0 -29 29 c-27 27 -29 35 -29
100 l0 70 32 -10 c18 -5 134 -9 258 -9z m3540 -40 c0 -66 -22 -117 -55 -130
-15 -6 -125 -10 -246 -10 l-219 0 0 90 0 90 238 3 c130 1 247 3 260 5 20 2 22
-2 22 -48z"/>
<path d="M2460 2465 c-8 -2 -49 -9 -90 -15 -211 -35 -415 -145 -576 -312 -259
-269 -356 -641 -264 -1011 26 -102 113 -281 179 -368 392 -516 1141 -572 1600
-120 223 219 333 500 318 815 -18 390 -240 728 -592 902 -148 73 -272 104
-435 109 -69 2 -132 2 -140 0z m322 -174 c333 -87 574 -323 670 -657 32 -112
32 -351 0 -469 -81 -296 -310 -538 -597 -634 -522 -174 -1073 141 -1191 682
-21 93 -21 280 -1 372 79 366 369 651 735 720 103 19 282 13 384 -14z"/>
<path d="M2515 2115 l-25 -24 0 -231 0 -230 -24 -10 c-38 -14 -95 -69 -119
-114 -29 -56 -29 -155 1 -212 87 -168 324 -178 417 -17 l30 52 151 1 c170 0
184 5 184 72 0 64 -21 72 -191 78 l-148 5 -30 47 c-17 27 -48 57 -75 73 l-46
27 0 218 c0 233 -5 260 -47 279 -36 16 -51 14 -78 -14z m88 -637 c33 -17 46
-39 46 -78 0 -79 -86 -118 -146 -66 -22 19 -28 32 -28 66 0 70 67 111 128 78z"/>
<path d="M851 3434 c-20 -25 -21 -40 -21 -214 0 -254 -19 -234 232 -238 185
-3 195 -2 221 18 l27 21 0 200 c0 186 -1 200 -20 219 -19 19 -33 20 -219 20
l-200 0 -20 -26z m309 -214 l0 -90 -90 0 -90 0 0 90 0 90 90 0 90 0 0 -90z"/>
<path d="M1600 3440 c-19 -19 -20 -33 -20 -219 l0 -200 26 -20 c25 -19 40 -21
205 -21 190 0 219 6 238 47 7 15 11 93 11 202 0 165 -2 180 -21 205 l-20 26
-200 0 c-186 0 -200 -1 -219 -20z m310 -220 l0 -90 -90 0 -90 0 0 90 0 90 90
0 90 0 0 -90z"/>
<path d="M2341 3434 c-19 -25 -21 -40 -21 -205 0 -190 6 -219 47 -238 15 -7
93 -11 202 -11 165 0 180 2 205 21 l26 20 0 200 c0 186 -1 200 -20 219 -19 19
-33 20 -219 20 l-200 0 -20 -26z m309 -214 l0 -90 -90 0 -90 0 0 90 0 90 90 0
90 0 0 -90z"/>
<path d="M3090 3440 c-19 -19 -20 -33 -20 -215 0 -196 0 -196 25 -221 l25 -25
196 3 c253 4 234 -16 234 238 0 174 -1 189 -21 214 l-20 26 -200 0 c-186 0
-200 -1 -219 -20z m310 -220 l0 -90 -90 0 -90 0 0 90 0 90 90 0 90 0 0 -90z"/>
<path d="M3834 3439 c-17 -19 -19 -41 -22 -201 -4 -195 2 -228 44 -247 16 -7
92 -11 203 -11 165 0 180 2 205 21 l26 20 0 200 c0 186 -1 200 -20 219 -19 19
-33 20 -218 20 -189 0 -200 -1 -218 -21z m306 -219 l0 -90 -90 0 -90 0 0 90 0
90 90 0 90 0 0 -90z"/>
<path d="M855 2775 c-25 -24 -25 -26 -25 -215 0 -257 -18 -240 243 -240 256 0
237 -20 237 241 0 258 19 239 -239 239 -190 0 -192 0 -216 -25z m305 -215 l0
-90 -90 0 -90 0 0 90 0 90 90 0 90 0 0 -90z"/>
<path d="M3839 2781 c-24 -19 -24 -21 -24 -221 0 -261 -21 -240 239 -240 256
0 236 -21 236 240 0 187 -1 201 -20 220 -19 19 -33 20 -214 20 -176 0 -196 -2
-217 -19z m301 -221 l0 -90 -90 0 -90 0 0 90 0 90 90 0 90 0 0 -90z"/>
</g>
</svg>
