<?xml version="1.0" standalone="no"?>
<!DOCTYPE svg PUBLIC "-//W3C//DTD SVG 20010904//EN"
 "http://www.w3.org/TR/2001/REC-SVG-20010904/DTD/svg10.dtd">
<svg version="1.0" xmlns="http://www.w3.org/2000/svg"
 width="512.000000pt" height="512.000000pt" viewBox="0 0 512.000000 512.000000"
 preserveAspectRatio="xMidYMid meet">

<g transform="translate(0.000000,512.000000) scale(0.100000,-0.100000)"
fill="#000000" stroke="none">
<path d="M1625 4855 c-25 -24 -25 -27 -25 -198 l0 -175 -35 -6 c-43 -8 -94
-50 -111 -93 -12 -26 -14 -182 -14 -847 l0 -814 -70 -4 c-74 -4 -105 -19 -144
-72 -18 -23 -22 -45 -24 -144 -2 -67 1 -132 7 -153 14 -46 69 -96 116 -105
l35 -6 0 -81 0 -80 -68 -106 c-38 -58 -74 -121 -80 -140 -17 -49 -17 -1367 0
-1425 16 -55 99 -138 154 -154 28 -8 130 -12 316 -12 323 0 343 4 411 80 24
26 49 66 55 88 17 56 17 1374 0 1423 -6 19 -42 82 -80 140 l-68 106 0 80 0 81
35 6 c47 9 102 59 116 105 6 21 9 86 7 153 -2 99 -6 121 -24 144 -39 53 -70
68 -144 72 l-70 4 0 814 c0 665 -2 821 -14 847 -17 43 -68 85 -111 93 l-35 6
0 175 c0 171 0 174 -25 198 -15 16 -36 25 -55 25 -19 0 -40 -9 -55 -25z m135
-1335 l0 -800 -80 0 -80 0 0 800 0 800 80 0 80 0 0 -800z m240 -1040 l0 -80
-320 0 -320 0 0 80 0 80 320 0 320 0 0 -80z m-160 -329 c0 -111 12 -144 94
-267 l66 -99 0 -668 0 -668 -25 -24 c-22 -23 -32 -25 -120 -25 l-95 0 0 695 0
696 -25 24 c-15 16 -36 25 -55 25 -19 0 -40 -9 -55 -25 l-25 -24 0 -696 0
-695 -95 0 c-88 0 -98 2 -120 25 l-25 24 0 668 0 668 66 99 c82 123 94 156 94
267 l0 89 160 0 160 0 0 -89z"/>
<path d="M3067 4857 c-20 -19 -28 -56 -66 -322 l-42 -300 40 -162 41 -162 0
-594 0 -595 -70 -4 c-74 -4 -105 -19 -144 -72 -18 -23 -22 -45 -24 -144 -2
-67 1 -132 7 -153 14 -46 69 -96 116 -105 l35 -6 0 -81 0 -80 -68 -106 c-38
-58 -74 -121 -80 -140 -17 -49 -17 -1367 0 -1425 16 -55 99 -138 154 -154 28
-8 130 -12 316 -12 323 0 343 4 411 80 24 26 49 66 55 88 17 56 17 1374 0
1423 -6 19 -42 82 -80 140 l-68 106 0 80 0 81 35 6 c47 9 102 59 116 105 6 21
9 86 7 153 -2 99 -6 121 -24 144 -39 53 -70 68 -144 72 l-70 4 0 595 0 594 41
162 40 162 -42 300 c-38 266 -46 303 -66 322 -21 22 -28 23 -213 23 -185 0
-192 -1 -213 -23z m308 -169 c3 -18 19 -125 35 -238 l29 -205 -39 -155 -40
-155 0 -607 0 -608 -80 0 -80 0 0 608 0 607 -40 155 -39 155 29 205 c16 113
32 220 35 238 l6 32 89 0 89 0 6 -32z m225 -2208 l0 -80 -320 0 -320 0 0 80 0
80 320 0 320 0 0 -80z m-160 -329 c0 -111 12 -144 94 -267 l66 -99 0 -668 0
-668 -25 -24 c-22 -23 -32 -25 -120 -25 l-95 0 0 695 0 696 -25 24 c-15 16
-36 25 -55 25 -19 0 -40 -9 -55 -25 l-25 -24 0 -696 0 -695 -95 0 c-88 0 -98
2 -120 25 l-25 24 0 668 0 668 66 99 c82 123 94 156 94 267 l0 89 160 0 160 0
0 -89z"/>
</g>
</svg>
